<svg width="57" height="45" viewBox="0 0 57 45" fill="none" xmlns="http://www.w3.org/2000/svg">
<path d="M13.6972 20.8595C11.642 20.8665 9.62311 21.4023 7.83491 22.4154C10.3525 15.8988 14.5281 10.1526 19.9485 5.74538C20.2586 5.48998 20.5154 5.17599 20.7042 4.82135C20.8929 4.46672 21.01 4.07837 21.0487 3.67848C21.0874 3.27859 21.047 2.87499 20.9297 2.49074C20.8124 2.10648 20.6206 1.74908 20.3652 1.43896C20.1098 1.12883 19.7958 0.872038 19.4412 0.683254C19.0866 0.494471 18.6982 0.377388 18.2983 0.338689C17.8984 0.29999 17.4948 0.340435 17.1106 0.457713C16.7263 0.57499 16.3689 0.766803 16.0588 1.0222C4.94544 10.0518 0 22.5543 0 30.3059C0.0191484 33.0467 0.835919 35.7226 2.35058 38.007C3.86525 40.2913 6.01227 42.0852 8.5295 43.1696C10.1586 43.9588 11.9426 44.3763 13.7528 44.3921C15.346 44.4695 16.9384 44.2226 18.4334 43.6662C19.9284 43.1098 21.2948 42.2556 22.4498 41.1554C23.6048 40.0552 24.5243 38.7319 25.1526 37.2657C25.7809 35.7995 26.1048 34.2209 26.1048 32.6258C26.1048 31.0306 25.7809 29.4521 25.1526 27.9859C24.5243 26.5197 23.6048 25.1964 22.4498 24.0962C21.2948 22.9959 19.9284 22.1418 18.4334 21.5854C16.9384 21.029 15.346 20.7821 13.7528 20.8595H13.6972Z" fill="#FF694E"/>
<path d="M44.6479 20.8595C42.5923 20.864 40.5728 21.3999 38.7856 22.4154C41.3022 15.9056 45.4668 10.1613 50.8714 5.74536C51.2096 5.50153 51.4944 5.19105 51.7082 4.83303C51.922 4.47501 52.0603 4.07703 52.1145 3.66357C52.1687 3.25012 52.1378 2.82994 52.0236 2.42889C51.9093 2.02785 51.7142 1.65443 51.4503 1.33161C51.1863 1.00878 50.8591 0.743393 50.4887 0.551768C50.1184 0.360142 49.7127 0.246337 49.2967 0.217353C48.8807 0.188369 48.4632 0.244819 48.0699 0.383233C47.6765 0.521646 47.3156 0.739093 47.0095 1.02219C35.8961 10.0518 30.9507 22.5543 30.9507 30.3059C30.9638 33.0156 31.7568 35.6643 33.2348 37.9356C34.7128 40.2068 36.8134 42.0045 39.2857 43.114C40.9561 43.9263 42.7905 44.3445 44.6479 44.3365C46.2412 44.4139 47.8336 44.167 49.3285 43.6106C50.8235 43.0543 52.1899 42.2001 53.3449 41.0999C54.4999 39.9996 55.4194 38.6763 56.0477 37.2101C56.676 35.7439 57 34.1654 57 32.5702C57 30.9751 56.676 29.3965 56.0477 27.9303C55.4194 26.4641 54.4999 25.1408 53.3449 24.0406C52.1899 22.9404 50.8235 22.0862 49.3285 21.5298C47.8336 20.9735 46.2412 20.7265 44.6479 20.804V20.8595Z" fill="#FF694E"/>
</svg>
